<?xml version="1.0" encoding="UTF-8" standalone="no"?>
<svg
   fill="none"
   viewBox="0 0 128 128"
   version="1.1"
   id="svg1"
   xmlns="http://www.w3.org/2000/svg"
   xmlns:svg="http://www.w3.org/2000/svg">
  <defs
     id="defs1">
    <clipPath
       clipPathUnits="userSpaceOnUse"
       id="clipPath18">
      <path
         style="fill:#000000;fill-opacity:1;stroke:none;stroke-width:1.97054;stroke-linecap:round;stroke-linejoin:round;stroke-dasharray:none"
         id="path18"
         width="128"
         height="128"
         x="0"
         y="0"
         d="m 16,0 h 96 a 16,16 45 0 1 16,16 v 96 a 16,16 135 0 1 -16,16 H 16 A 16,16 45 0 1 0,112 V 16 A 16,16 135 0 1 16,0 Z" />
    </clipPath>
    <clipPath
       clipPathUnits="userSpaceOnUse"
       id="clipPath19">
      <path
         style="fill:#000000;fill-opacity:1;stroke:none;stroke-width:1.97054;stroke-linecap:round;stroke-linejoin:round;stroke-dasharray:none"
         id="path19"
         width="128"
         height="128"
         x="0"
         y="0"
         d="m 16,0 h 96 a 16,16 45 0 1 16,16 v 96 a 16,16 135 0 1 -16,16 H 16 A 16,16 45 0 1 0,112 V 16 A 16,16 135 0 1 16,0 Z" />
    </clipPath>
    <clipPath
       clipPathUnits="userSpaceOnUse"
       id="clipPath20">
      <path
         style="fill:#000000;fill-opacity:1;stroke:none;stroke-width:1.97054;stroke-linecap:round;stroke-linejoin:round;stroke-dasharray:none"
         id="path20"
         width="128"
         height="128"
         x="0"
         y="0"
         d="m 16,0 h 96 a 16,16 45 0 1 16,16 v 96 a 16,16 135 0 1 -16,16 H 16 A 16,16 45 0 1 0,112 V 16 A 16,16 135 0 1 16,0 Z" />
    </clipPath>
    <clipPath
       clipPathUnits="userSpaceOnUse"
       id="clipPath21">
      <path
         style="fill:#000000;fill-opacity:1;stroke:none;stroke-width:1.97054;stroke-linecap:round;stroke-linejoin:round;stroke-dasharray:none"
         id="path21"
         width="128"
         height="128"
         x="0"
         y="0"
         d="m 16,0 h 96 a 16,16 45 0 1 16,16 v 96 a 16,16 135 0 1 -16,16 H 16 A 16,16 45 0 1 0,112 V 16 A 16,16 135 0 1 16,0 Z" />
    </clipPath>
  </defs>
  <style
     id="style1">
        path { fill: #000; }
        @media (prefers-color-scheme: dark) {
            path { fill: #FFF; }
        }
    </style>
  <path
     style="fill:#00c1f0;fill-opacity:1;stroke:none;stroke-width:1.97054;stroke-linecap:round;stroke-linejoin:round;stroke-dasharray:none"
     id="rect4"
     width="128"
     height="128"
     x="0"
     y="0"
     d="m 16,0 h 96 a 16,16 45 0 1 16,16 v 96 a 16,16 135 0 1 -16,16 H 16 A 16,16 45 0 1 0,112 V 16 A 16,16 135 0 1 16,0 Z" />
  <path
     style="display:inline;fill:none;fill-opacity:1;stroke:#000000;stroke-width:6.00000086;stroke-linecap:round;stroke-linejoin:round;stroke-dasharray:none;stroke-opacity:1"
     d="M -5.9665787,44.580475 C 84.432717,15.310466 53.458214,56.25422 136.66843,56.96394"
     id="path1"
     clip-path="url(#clipPath21)" />
  <path
     style="display:inline;fill:none;fill-opacity:1;stroke:#000000;stroke-width:6.00000086;stroke-linecap:round;stroke-linejoin:round;stroke-dasharray:none;stroke-opacity:1"
     d="M -5.17854,4.9533861 C 14.747581,11.82058 31.859279,31.521548 38.163588,58.765172 c 6.30431,27.243623 18.12489,72.274408 50.772208,77.340368"
     id="path2"
     clip-path="url(#clipPath20)" />
  <path
     style="display:inline;fill:none;fill-opacity:1;stroke:#000000;stroke-width:6.00000086;stroke-linecap:round;stroke-linejoin:round;stroke-dasharray:none;stroke-opacity:1"
     d="M 132.16535,6.7546174 C 70.698329,31.07124 94.114336,120.23219 -2.1389622,101.88215"
     id="path3"
     clip-path="url(#clipPath19)" />
  <path
     style="display:inline;fill:none;fill-opacity:1;stroke:#000000;stroke-width:6.00000086;stroke-linecap:round;stroke-linejoin:round;stroke-dasharray:none;stroke-opacity:1"
     d="M 132.84081,108.74934 C 114.37819,84.207564 35.686895,88.710642 57.639402,-1.8012313"
     id="path4"
     clip-path="url(#clipPath18)" />
</svg>
